<svg width="2875" height="579" viewBox="0 0 2875 579" fill="none" xmlns="http://www.w3.org/2000/svg">
<path fill-rule="evenodd" clip-rule="evenodd" d="M137.964 28.7799C191.103 8.85439 254.891 -1.68473 317.317 0.220066C379.493 2.11736 443.413 16.4773 494.696 49.4454C539.917 78.5169 553.699 126.321 546.17 167.326C539.036 206.171 510.796 246.137 465.028 254.419C420.182 262.534 365.568 259.36 316.296 247.521C268.033 235.923 217.761 214.285 187.414 179.534C173.989 164.159 175.57 140.811 190.944 127.385C206.319 113.96 229.667 115.54 243.093 130.915C258.577 148.645 291.095 165.443 333.566 175.649C375.029 185.612 419.097 187.611 451.867 181.681C459.31 180.333 470.248 171.5 473.466 153.976C476.288 138.61 471.594 122.47 454.724 111.624C418.145 88.1088 368.595 75.7393 315.062 74.1058C273.139 72.8266 230.67 78.2057 193.185 88.5373C192.949 88.6586 192.709 88.7754 192.463 88.8852C180.09 94.421 165.143 104.598 155.538 118.199C146.687 130.734 142.284 146.102 148.587 165.082C156.002 181.676 163.832 198.089 169.247 207.024C200.509 258.607 219.791 291.053 229.04 337.504C236.702 375.984 237.373 423.916 237.425 501.901H470.748C471.518 501.901 472.037 501.12 471.745 500.407C455.404 460.574 437.75 400.191 437.75 316.368C437.75 295.956 454.297 279.408 474.709 279.408C495.121 279.409 511.668 295.956 511.669 316.368C511.669 389.251 526.909 440.115 540.133 472.351C546.871 488.774 553.026 500.31 557.679 509.641C559.286 512.864 562.908 519.943 564.615 526.781C565.173 529.02 568.36 541.04 562.12 554.059C553.214 572.637 535.33 575.82 527.187 575.82H65.1985C31.5952 575.82 17.099 546.566 11.987 532.721C5.65937 515.582 2.59613 494.039 1.26589 471.889C-1.44564 426.737 2.49546 367.964 11.3734 309.217C20.2615 250.404 34.4348 189.376 53.1925 139.896C62.5494 115.215 73.5137 92.1526 86.3304 73.3926C98.6997 55.2876 115.483 37.2098 137.964 28.7799ZM100.932 236.385C94.332 263.226 88.7709 291.752 84.4622 320.263C76.0625 375.845 72.7504 429.133 75.052 467.458C75.7768 479.527 77.0116 489.114 78.4577 496.337C79.1177 499.634 82.073 501.901 85.4353 501.901H163.495C163.4 422.416 162.642 382.564 156.545 351.938C150.203 320.088 138.069 298.199 106.032 245.338C104.387 242.624 102.676 239.61 100.932 236.385Z" fill="#EAEAEA"/>
<mask id="path-2-outside-1_2231_16221" maskUnits="userSpaceOnUse" x="631.578" y="85.9102" width="2207" height="493" fill="black">
<rect fill="white" x="631.578" y="85.9102" width="2207" height="493"/>
<path d="M637.054 483.91V91.9618H783.344C828.243 91.9618 863.206 102.819 888.232 124.532C913.258 145.878 925.77 175.688 925.77 213.963C925.77 239.356 920.066 261.438 908.657 280.207C897.248 298.609 880.871 312.778 859.526 322.715C838.548 332.283 813.154 337.068 783.344 337.068H696.674V483.91H637.054ZM696.674 282.968H781.688C808.554 282.968 828.979 277.263 842.964 265.854C856.949 254.078 863.942 236.78 863.942 213.963C863.942 191.513 856.949 174.768 842.964 163.727C828.979 152.318 808.554 146.614 781.688 146.614H696.674V282.968ZM1034.94 490.535C1004.4 490.535 979.925 483.542 961.524 469.557C943.49 455.572 934.474 435.883 934.474 410.489C934.474 385.095 942.018 365.406 957.107 351.421C972.564 337.068 996.302 326.763 1028.32 320.506L1129.34 301.185C1129.34 278.367 1124.01 261.438 1113.33 250.397C1102.66 238.988 1086.84 233.284 1065.86 233.284C1047.09 233.284 1032.37 237.516 1021.7 245.981C1011.02 254.078 1003.66 266.222 999.614 282.416L939.442 278.551C944.962 249.109 958.579 225.924 980.293 208.994C1002.37 192.065 1030.9 183.6 1065.86 183.6C1105.61 183.6 1135.78 194.273 1156.39 215.619C1177.37 236.596 1187.86 266.222 1187.86 304.497V418.769C1187.86 425.762 1188.96 430.73 1191.17 433.675C1193.75 436.251 1197.8 437.539 1203.32 437.539H1213.81V483.91C1211.97 484.278 1209.02 484.646 1204.97 485.014C1200.92 485.382 1196.69 485.566 1192.28 485.566C1179.76 485.566 1168.91 483.542 1159.71 479.494C1150.87 475.446 1144.25 468.821 1139.83 459.62C1135.42 450.052 1133.21 437.355 1133.21 421.53L1139.28 424.29C1136.34 437.171 1129.9 448.58 1119.96 458.516C1110.39 468.453 1098.06 476.366 1082.97 482.254C1068.25 487.774 1052.24 490.535 1034.94 490.535ZM1044.33 444.163C1061.99 444.163 1077.08 440.851 1089.6 434.227C1102.11 427.234 1111.86 417.665 1118.85 405.52C1125.85 393.376 1129.34 379.575 1129.34 364.118V345.348L1043.23 361.909C1025.56 365.222 1013.05 370.558 1005.69 377.919C998.694 384.911 995.198 393.928 995.198 404.968C995.198 417.481 999.43 427.234 1007.89 434.227C1016.73 440.851 1028.87 444.163 1044.33 444.163ZM1234.51 566.716V190.225H1289.71L1291.37 253.157L1284.74 249.845C1292.1 228.132 1304.25 211.755 1321.18 200.714C1338.11 189.305 1357.61 183.6 1379.69 183.6C1408.4 183.6 1431.95 190.777 1450.35 205.13C1469.12 219.115 1482.93 237.7 1491.76 260.886C1500.96 284.072 1505.56 309.466 1505.56 337.068C1505.56 364.67 1500.96 390.063 1491.76 413.249C1482.93 436.435 1469.12 455.204 1450.35 469.557C1431.95 483.542 1408.4 490.535 1379.69 490.535C1364.97 490.535 1351.17 487.958 1338.29 482.806C1325.41 477.654 1314.37 470.477 1305.17 461.277C1296.34 451.708 1290.08 440.483 1286.4 427.602L1293.02 420.978V566.716H1234.51ZM1369.21 439.747C1392.76 439.747 1411.16 430.73 1424.41 412.697C1438.03 394.664 1444.83 369.454 1444.83 337.068C1444.83 304.681 1438.03 279.471 1424.41 261.438C1411.16 243.405 1392.76 234.388 1369.21 234.388C1353.75 234.388 1340.31 238.252 1328.91 245.981C1317.5 253.342 1308.66 264.75 1302.41 280.207C1296.15 295.665 1293.02 314.618 1293.02 337.068C1293.02 359.517 1295.97 378.471 1301.86 393.928C1308.11 409.385 1316.95 420.978 1328.35 428.706C1340.13 436.067 1353.75 439.747 1369.21 439.747ZM1657.17 490.535C1628.46 490.535 1603.62 484.278 1582.64 471.765C1562.03 459.252 1546.02 441.403 1534.61 418.217C1523.57 395.032 1518.05 367.982 1518.05 337.068C1518.05 306.153 1523.57 279.287 1534.61 256.47C1546.02 233.284 1562.03 215.435 1582.64 202.922C1603.25 190.041 1627.54 183.6 1655.51 183.6C1682.01 183.6 1705.38 189.857 1725.62 202.37C1745.86 214.515 1761.5 232.18 1772.54 255.366C1783.95 278.551 1789.66 306.521 1789.66 339.276V354.181H1578.78C1580.25 382.887 1587.79 404.416 1601.41 418.769C1615.4 433.122 1634.17 440.299 1657.72 440.299C1675.02 440.299 1689.37 436.251 1700.78 428.154C1712.19 420.058 1720.1 409.201 1724.52 395.584L1785.24 399.448C1777.51 426.682 1762.24 448.764 1739.42 465.693C1716.97 482.254 1689.55 490.535 1657.17 490.535ZM1578.78 310.018H1727.83C1725.99 283.888 1718.44 264.566 1705.19 252.053C1692.31 239.541 1675.75 233.284 1655.51 233.284C1634.53 233.284 1617.24 239.909 1603.62 253.157C1590.37 266.038 1582.09 284.992 1578.78 310.018ZM1820.24 483.91V190.225H1873.79L1876 268.063L1871.03 266.406C1875.08 239.909 1883.18 220.587 1895.32 208.442C1907.83 196.297 1924.58 190.225 1945.56 190.225H1973.71V242.669H1945.56C1930.84 242.669 1918.51 245.061 1908.57 249.845C1898.63 254.63 1891.09 261.99 1885.94 271.927C1881.15 281.864 1878.76 294.744 1878.76 310.57V483.91H1820.24ZM2139.45 490.535C2119.21 490.535 2101.18 486.118 2085.35 477.286C2069.89 468.085 2057.93 455.572 2049.47 439.747L2047.81 483.91H1993.16V91.9618H2051.68V231.628C2059.41 218.747 2070.81 207.522 2085.9 197.954C2101.36 188.385 2119.21 183.6 2139.45 183.6C2164.85 183.6 2186.93 189.857 2205.7 202.37C2224.47 214.883 2238.82 232.732 2248.76 255.918C2259.06 278.735 2264.21 305.785 2264.21 337.068C2264.21 368.35 2259.06 395.584 2248.76 418.769C2238.82 441.587 2224.47 459.252 2205.7 471.765C2186.93 484.278 2164.85 490.535 2139.45 490.535ZM2130.07 439.747C2152.52 439.747 2170.37 430.73 2183.61 412.697C2196.86 394.296 2203.49 369.086 2203.49 337.068C2203.49 305.049 2196.86 280.023 2183.61 261.99C2170.37 243.589 2152.7 234.388 2130.62 234.388C2114.06 234.388 2099.89 238.436 2088.11 246.533C2076.34 254.63 2067.32 266.406 2061.06 281.864C2054.81 296.953 2051.68 315.354 2051.68 337.068C2051.68 358.045 2054.81 376.262 2061.06 391.719C2067.32 407.177 2076.34 419.137 2088.11 427.602C2099.89 435.699 2113.87 439.747 2130.07 439.747ZM2383.11 490.535C2352.56 490.535 2328.09 483.542 2309.69 469.557C2291.65 455.572 2282.64 435.883 2282.64 410.489C2282.64 385.095 2290.18 365.406 2305.27 351.421C2320.73 337.068 2344.47 326.763 2376.48 320.506L2477.51 301.185C2477.51 278.367 2472.17 261.438 2461.5 250.397C2450.83 238.988 2435 233.284 2414.02 233.284C2395.25 233.284 2380.53 237.516 2369.86 245.981C2359.19 254.078 2351.83 266.222 2347.78 282.416L2287.61 278.551C2293.13 249.109 2306.74 225.924 2328.46 208.994C2350.54 192.065 2379.06 183.6 2414.02 183.6C2453.77 183.6 2483.95 194.273 2504.56 215.619C2525.53 236.596 2536.02 266.222 2536.02 304.497V418.769C2536.02 425.762 2537.13 430.73 2539.34 433.675C2541.91 436.251 2545.96 437.539 2551.48 437.539H2561.97V483.91C2560.13 484.278 2557.18 484.646 2553.14 485.014C2549.09 485.382 2544.86 485.566 2540.44 485.566C2527.93 485.566 2517.07 483.542 2507.87 479.494C2499.04 475.446 2492.41 468.821 2488 459.62C2483.58 450.052 2481.37 437.355 2481.37 421.53L2487.44 424.29C2484.5 437.171 2478.06 448.58 2468.12 458.516C2458.55 468.453 2446.22 476.366 2431.14 482.254C2416.41 487.774 2400.41 490.535 2383.11 490.535ZM2392.49 444.163C2410.16 444.163 2425.25 440.851 2437.76 434.227C2450.27 427.234 2460.03 417.665 2467.02 405.52C2474.01 393.376 2477.51 379.575 2477.51 364.118V345.348L2391.39 361.909C2373.72 365.222 2361.21 370.558 2353.85 377.919C2346.86 384.911 2343.36 393.928 2343.36 404.968C2343.36 417.481 2347.59 427.234 2356.06 434.227C2364.89 440.851 2377.04 444.163 2392.49 444.163ZM2698.65 573.341C2675.47 573.341 2655.04 569.844 2637.37 562.852C2619.71 555.859 2605.17 545.923 2593.76 533.042C2582.35 520.529 2574.63 505.808 2570.58 488.879L2631.3 485.014C2635.35 497.159 2642.34 506.728 2652.28 513.72C2662.58 521.081 2678.04 524.761 2698.65 524.761C2722.94 524.761 2741.53 519.609 2754.41 509.304C2767.66 498.999 2774.28 483.358 2774.28 462.381V419.874C2767.29 434.963 2756.06 446.923 2740.61 455.756C2725.15 464.589 2707.85 469.005 2688.71 469.005C2664.06 469.005 2642.16 462.933 2623.02 450.788C2603.88 438.643 2588.98 421.898 2578.31 400.552C2567.63 379.207 2562.3 354.549 2562.3 326.579C2562.3 298.241 2567.45 273.399 2577.75 252.053C2588.43 230.708 2603.15 213.963 2621.92 201.818C2641.05 189.673 2662.58 183.6 2686.51 183.6C2707.48 183.6 2725.88 188.385 2741.71 197.954C2757.9 207.522 2769.5 220.403 2776.49 236.596V190.225H2832.8V460.724C2832.8 485.014 2827.28 505.44 2816.24 522.001C2805.56 538.93 2790.11 551.627 2769.86 560.092C2749.99 568.924 2726.25 573.341 2698.65 573.341ZM2698.1 419.321C2720.92 419.321 2739.13 411.041 2752.75 394.48C2766.74 377.918 2773.91 355.101 2774.28 326.027C2774.65 306.889 2771.7 290.512 2765.45 276.895C2759.19 262.91 2750.17 252.237 2738.4 244.877C2726.99 237.148 2713.56 233.284 2698.1 233.284C2674.18 233.284 2655.59 241.749 2642.34 258.678C2629.46 275.239 2623.02 297.689 2623.02 326.027C2623.02 354.733 2629.65 377.55 2642.89 394.48C2656.51 411.041 2674.91 419.321 2698.1 419.321Z"/>
</mask>
<path d="M637.054 483.91V91.9618H783.344C828.243 91.9618 863.206 102.819 888.232 124.532C913.258 145.878 925.77 175.688 925.77 213.963C925.77 239.356 920.066 261.438 908.657 280.207C897.248 298.609 880.871 312.778 859.526 322.715C838.548 332.283 813.154 337.068 783.344 337.068H696.674V483.91H637.054ZM696.674 282.968H781.688C808.554 282.968 828.979 277.263 842.964 265.854C856.949 254.078 863.942 236.78 863.942 213.963C863.942 191.513 856.949 174.768 842.964 163.727C828.979 152.318 808.554 146.614 781.688 146.614H696.674V282.968ZM1034.94 490.535C1004.4 490.535 979.925 483.542 961.524 469.557C943.49 455.572 934.474 435.883 934.474 410.489C934.474 385.095 942.018 365.406 957.107 351.421C972.564 337.068 996.302 326.763 1028.32 320.506L1129.34 301.185C1129.34 278.367 1124.01 261.438 1113.33 250.397C1102.66 238.988 1086.84 233.284 1065.86 233.284C1047.09 233.284 1032.37 237.516 1021.7 245.981C1011.02 254.078 1003.66 266.222 999.614 282.416L939.442 278.551C944.962 249.109 958.579 225.924 980.293 208.994C1002.37 192.065 1030.9 183.6 1065.86 183.6C1105.61 183.6 1135.78 194.273 1156.39 215.619C1177.37 236.596 1187.86 266.222 1187.86 304.497V418.769C1187.86 425.762 1188.96 430.73 1191.17 433.675C1193.75 436.251 1197.8 437.539 1203.32 437.539H1213.81V483.91C1211.97 484.278 1209.02 484.646 1204.97 485.014C1200.92 485.382 1196.69 485.566 1192.28 485.566C1179.76 485.566 1168.91 483.542 1159.71 479.494C1150.87 475.446 1144.25 468.821 1139.83 459.62C1135.42 450.052 1133.21 437.355 1133.21 421.53L1139.28 424.29C1136.34 437.171 1129.9 448.58 1119.96 458.516C1110.39 468.453 1098.06 476.366 1082.97 482.254C1068.25 487.774 1052.24 490.535 1034.94 490.535ZM1044.33 444.163C1061.99 444.163 1077.08 440.851 1089.6 434.227C1102.11 427.234 1111.86 417.665 1118.85 405.52C1125.85 393.376 1129.34 379.575 1129.34 364.118V345.348L1043.23 361.909C1025.56 365.222 1013.05 370.558 1005.69 377.919C998.694 384.911 995.198 393.928 995.198 404.968C995.198 417.481 999.43 427.234 1007.89 434.227C1016.73 440.851 1028.87 444.163 1044.33 444.163ZM1234.51 566.716V190.225H1289.71L1291.37 253.157L1284.74 249.845C1292.1 228.132 1304.25 211.755 1321.18 200.714C1338.11 189.305 1357.61 183.6 1379.69 183.6C1408.4 183.6 1431.95 190.777 1450.35 205.13C1469.12 219.115 1482.93 237.7 1491.76 260.886C1500.96 284.072 1505.56 309.466 1505.56 337.068C1505.56 364.67 1500.96 390.063 1491.76 413.249C1482.93 436.435 1469.12 455.204 1450.35 469.557C1431.95 483.542 1408.4 490.535 1379.69 490.535C1364.97 490.535 1351.17 487.958 1338.29 482.806C1325.41 477.654 1314.37 470.477 1305.17 461.277C1296.34 451.708 1290.08 440.483 1286.4 427.602L1293.02 420.978V566.716H1234.51ZM1369.21 439.747C1392.76 439.747 1411.16 430.73 1424.41 412.697C1438.03 394.664 1444.83 369.454 1444.83 337.068C1444.83 304.681 1438.03 279.471 1424.41 261.438C1411.16 243.405 1392.76 234.388 1369.21 234.388C1353.75 234.388 1340.31 238.252 1328.91 245.981C1317.5 253.342 1308.66 264.75 1302.41 280.207C1296.15 295.665 1293.02 314.618 1293.02 337.068C1293.02 359.517 1295.97 378.471 1301.86 393.928C1308.11 409.385 1316.95 420.978 1328.35 428.706C1340.13 436.067 1353.75 439.747 1369.21 439.747ZM1657.17 490.535C1628.46 490.535 1603.62 484.278 1582.64 471.765C1562.03 459.252 1546.02 441.403 1534.61 418.217C1523.57 395.032 1518.05 367.982 1518.05 337.068C1518.05 306.153 1523.57 279.287 1534.61 256.47C1546.02 233.284 1562.03 215.435 1582.64 202.922C1603.25 190.041 1627.54 183.6 1655.51 183.6C1682.01 183.6 1705.38 189.857 1725.62 202.37C1745.86 214.515 1761.5 232.18 1772.54 255.366C1783.95 278.551 1789.66 306.521 1789.66 339.276V354.181H1578.78C1580.25 382.887 1587.79 404.416 1601.41 418.769C1615.4 433.122 1634.17 440.299 1657.72 440.299C1675.02 440.299 1689.37 436.251 1700.78 428.154C1712.19 420.058 1720.1 409.201 1724.52 395.584L1785.24 399.448C1777.51 426.682 1762.24 448.764 1739.42 465.693C1716.97 482.254 1689.55 490.535 1657.17 490.535ZM1578.78 310.018H1727.83C1725.99 283.888 1718.44 264.566 1705.19 252.053C1692.31 239.541 1675.75 233.284 1655.51 233.284C1634.53 233.284 1617.24 239.909 1603.62 253.157C1590.37 266.038 1582.09 284.992 1578.78 310.018ZM1820.24 483.91V190.225H1873.79L1876 268.063L1871.03 266.406C1875.08 239.909 1883.18 220.587 1895.32 208.442C1907.83 196.297 1924.58 190.225 1945.56 190.225H1973.71V242.669H1945.56C1930.84 242.669 1918.51 245.061 1908.57 249.845C1898.63 254.63 1891.09 261.99 1885.94 271.927C1881.15 281.864 1878.76 294.744 1878.76 310.57V483.91H1820.24ZM2139.45 490.535C2119.21 490.535 2101.18 486.118 2085.35 477.286C2069.89 468.085 2057.93 455.572 2049.47 439.747L2047.81 483.91H1993.16V91.9618H2051.68V231.628C2059.41 218.747 2070.81 207.522 2085.9 197.954C2101.36 188.385 2119.21 183.6 2139.45 183.6C2164.85 183.6 2186.93 189.857 2205.7 202.37C2224.47 214.883 2238.82 232.732 2248.76 255.918C2259.06 278.735 2264.21 305.785 2264.21 337.068C2264.21 368.35 2259.06 395.584 2248.76 418.769C2238.82 441.587 2224.47 459.252 2205.7 471.765C2186.93 484.278 2164.85 490.535 2139.45 490.535ZM2130.07 439.747C2152.52 439.747 2170.37 430.73 2183.61 412.697C2196.86 394.296 2203.49 369.086 2203.49 337.068C2203.49 305.049 2196.86 280.023 2183.61 261.99C2170.37 243.589 2152.7 234.388 2130.62 234.388C2114.06 234.388 2099.89 238.436 2088.11 246.533C2076.34 254.63 2067.32 266.406 2061.06 281.864C2054.81 296.953 2051.68 315.354 2051.68 337.068C2051.68 358.045 2054.81 376.262 2061.06 391.719C2067.32 407.177 2076.34 419.137 2088.11 427.602C2099.89 435.699 2113.87 439.747 2130.07 439.747ZM2383.11 490.535C2352.56 490.535 2328.09 483.542 2309.69 469.557C2291.65 455.572 2282.64 435.883 2282.64 410.489C2282.64 385.095 2290.18 365.406 2305.27 351.421C2320.73 337.068 2344.47 326.763 2376.48 320.506L2477.51 301.185C2477.51 278.367 2472.17 261.438 2461.5 250.397C2450.83 238.988 2435 233.284 2414.02 233.284C2395.25 233.284 2380.53 237.516 2369.86 245.981C2359.19 254.078 2351.83 266.222 2347.78 282.416L2287.61 278.551C2293.13 249.109 2306.74 225.924 2328.46 208.994C2350.54 192.065 2379.06 183.6 2414.02 183.6C2453.77 183.6 2483.95 194.273 2504.56 215.619C2525.53 236.596 2536.02 266.222 2536.02 304.497V418.769C2536.02 425.762 2537.13 430.73 2539.34 433.675C2541.91 436.251 2545.96 437.539 2551.48 437.539H2561.97V483.91C2560.13 484.278 2557.18 484.646 2553.14 485.014C2549.09 485.382 2544.86 485.566 2540.44 485.566C2527.93 485.566 2517.07 483.542 2507.87 479.494C2499.04 475.446 2492.41 468.821 2488 459.62C2483.58 450.052 2481.37 437.355 2481.37 421.53L2487.44 424.29C2484.5 437.171 2478.06 448.58 2468.12 458.516C2458.55 468.453 2446.22 476.366 2431.14 482.254C2416.41 487.774 2400.41 490.535 2383.11 490.535ZM2392.49 444.163C2410.16 444.163 2425.25 440.851 2437.76 434.227C2450.27 427.234 2460.03 417.665 2467.02 405.52C2474.01 393.376 2477.51 379.575 2477.51 364.118V345.348L2391.39 361.909C2373.72 365.222 2361.21 370.558 2353.85 377.919C2346.86 384.911 2343.36 393.928 2343.36 404.968C2343.36 417.481 2347.59 427.234 2356.06 434.227C2364.89 440.851 2377.04 444.163 2392.49 444.163ZM2698.65 573.341C2675.47 573.341 2655.04 569.844 2637.37 562.852C2619.71 555.859 2605.17 545.923 2593.76 533.042C2582.35 520.529 2574.63 505.808 2570.58 488.879L2631.3 485.014C2635.35 497.159 2642.34 506.728 2652.28 513.72C2662.58 521.081 2678.04 524.761 2698.65 524.761C2722.94 524.761 2741.53 519.609 2754.41 509.304C2767.66 498.999 2774.28 483.358 2774.28 462.381V419.874C2767.29 434.963 2756.06 446.923 2740.61 455.756C2725.15 464.589 2707.85 469.005 2688.71 469.005C2664.06 469.005 2642.16 462.933 2623.02 450.788C2603.88 438.643 2588.98 421.898 2578.31 400.552C2567.63 379.207 2562.3 354.549 2562.3 326.579C2562.3 298.241 2567.45 273.399 2577.75 252.053C2588.43 230.708 2603.15 213.963 2621.92 201.818C2641.05 189.673 2662.58 183.6 2686.51 183.6C2707.48 183.6 2725.88 188.385 2741.71 197.954C2757.9 207.522 2769.5 220.403 2776.49 236.596V190.225H2832.8V460.724C2832.8 485.014 2827.28 505.44 2816.24 522.001C2805.56 538.93 2790.11 551.627 2769.86 560.092C2749.99 568.924 2726.25 573.341 2698.65 573.341ZM2698.1 419.321C2720.92 419.321 2739.13 411.041 2752.75 394.48C2766.74 377.918 2773.91 355.101 2774.28 326.027C2774.65 306.889 2771.7 290.512 2765.45 276.895C2759.19 262.91 2750.17 252.237 2738.4 244.877C2726.99 237.148 2713.56 233.284 2698.1 233.284C2674.18 233.284 2655.59 241.749 2642.34 258.678C2629.46 275.239 2623.02 297.689 2623.02 326.027C2623.02 354.733 2629.65 377.55 2642.89 394.48C2656.51 411.041 2674.91 419.321 2698.1 419.321Z" fill="#EAEAEA"/>
<path d="M637.054 483.91H631.657C631.657 486.89 634.073 489.306 637.054 489.306V483.91ZM637.054 91.9618V86.5658C634.073 86.5658 631.657 88.9817 631.657 91.9618H637.054ZM888.232 124.532L884.695 128.608C884.707 128.618 884.718 128.628 884.73 128.638L888.232 124.532ZM908.657 280.207L913.243 283.051C913.252 283.037 913.26 283.024 913.268 283.01L908.657 280.207ZM859.526 322.715L861.765 327.624C861.778 327.618 861.79 327.612 861.803 327.606L859.526 322.715ZM696.674 337.068V331.671C693.694 331.671 691.278 334.087 691.278 337.068H696.674ZM696.674 483.91V489.306C699.654 489.306 702.07 486.89 702.07 483.91H696.674ZM696.674 282.968H691.278C691.278 285.948 693.694 288.364 696.674 288.364V282.968ZM842.964 265.854L846.375 270.036C846.397 270.018 846.419 270 846.44 269.982L842.964 265.854ZM842.964 163.727L839.553 167.908C839.576 167.926 839.598 167.944 839.621 167.962L842.964 163.727ZM696.674 146.614V141.218C693.694 141.218 691.278 143.634 691.278 146.614H696.674ZM637.054 483.91H642.45V91.9618H637.054H631.657V483.91H637.054ZM637.054 91.9618V97.3579H783.344V91.9618V86.5658H637.054V91.9618ZM783.344 91.9618V97.3579C827.408 97.3579 860.952 108.007 884.695 128.608L888.232 124.532L891.768 120.456C865.459 97.6298 829.078 86.5658 783.344 86.5658V91.9618ZM888.232 124.532L884.73 128.638C908.351 148.785 920.374 176.981 920.374 213.963H925.77H931.167C931.167 174.395 918.164 142.97 891.733 120.427L888.232 124.532ZM925.77 213.963H920.374C920.374 238.525 914.866 259.605 904.046 277.405L908.657 280.207L913.268 283.01C925.266 263.271 931.167 240.188 931.167 213.963H925.77ZM908.657 280.207L904.071 277.364C893.264 294.794 877.728 308.289 857.248 317.823L859.526 322.715L861.803 327.606C884.014 317.267 901.232 302.423 913.243 283.051L908.657 280.207ZM859.526 322.715L857.286 317.805C837.186 326.974 812.599 331.671 783.344 331.671V337.068V342.464C813.71 342.464 839.91 337.593 861.765 327.624L859.526 322.715ZM783.344 337.068V331.671H696.674V337.068V342.464H783.344V337.068ZM696.674 337.068H691.278V483.91H696.674H702.07V337.068H696.674ZM696.674 483.91V478.514H637.054V483.91V489.306H696.674V483.91ZM696.674 282.968V288.364H781.688V282.968V277.572H696.674V282.968ZM781.688 282.968V288.364C809.212 288.364 831.055 282.534 846.375 270.036L842.964 265.854L839.553 261.673C826.904 271.993 807.896 277.572 781.688 277.572V282.968ZM842.964 265.854L846.44 269.982C861.937 256.932 869.338 237.943 869.338 213.963H863.942H858.546C858.546 235.618 851.962 251.223 839.489 261.727L842.964 265.854ZM863.942 213.963H869.338C869.338 190.332 861.918 171.816 846.308 159.492L842.964 163.727L839.621 167.962C851.98 177.72 858.546 192.694 858.546 213.963H863.942ZM842.964 163.727L846.375 159.546C831.055 147.048 809.212 141.218 781.688 141.218V146.614V152.01C807.896 152.01 826.904 157.589 839.553 167.908L842.964 163.727ZM781.688 146.614V141.218H696.674V146.614V152.01H781.688V146.614ZM696.674 146.614H691.278V282.968H696.674H702.07V146.614H696.674ZM961.524 469.557L958.217 473.821C958.231 473.832 958.245 473.843 958.259 473.853L961.524 469.557ZM957.107 351.421L960.775 355.378L960.779 355.375L957.107 351.421ZM1028.32 320.506L1027.31 315.206C1027.3 315.208 1027.29 315.209 1027.29 315.21L1028.32 320.506ZM1129.34 301.185L1130.36 306.485C1132.9 305.999 1134.74 303.774 1134.74 301.185H1129.34ZM1113.33 250.397L1109.39 254.084C1109.41 254.105 1109.43 254.127 1109.45 254.148L1113.33 250.397ZM1021.7 245.981L1024.96 250.28C1024.99 250.257 1025.02 250.233 1025.05 250.209L1021.7 245.981ZM999.614 282.416L999.269 287.801C1001.87 287.968 1004.22 286.252 1004.85 283.724L999.614 282.416ZM939.442 278.551L934.138 277.557C933.854 279.075 934.233 280.643 935.181 281.863C936.129 283.082 937.555 283.837 939.096 283.936L939.442 278.551ZM980.293 208.994L977.01 204.712C976.998 204.721 976.987 204.73 976.975 204.739L980.293 208.994ZM1156.39 215.619L1152.51 219.367C1152.53 219.39 1152.56 219.412 1152.58 219.434L1156.39 215.619ZM1191.17 433.675L1186.86 436.912C1187.01 437.116 1187.18 437.31 1187.36 437.49L1191.17 433.675ZM1213.81 437.539H1219.2C1219.2 434.559 1216.79 432.143 1213.81 432.143V437.539ZM1213.81 483.91L1214.86 489.201C1217.39 488.697 1219.2 486.482 1219.2 483.91H1213.81ZM1204.97 485.014L1204.48 479.64V479.64L1204.97 485.014ZM1159.71 479.494L1157.46 484.399C1157.48 484.411 1157.51 484.422 1157.53 484.433L1159.71 479.494ZM1139.83 459.62L1134.93 461.882C1134.94 461.906 1134.96 461.931 1134.97 461.955L1139.83 459.62ZM1133.21 421.53L1135.44 416.617C1133.77 415.858 1131.83 416 1130.29 416.993C1128.74 417.986 1127.81 419.695 1127.81 421.53H1133.21ZM1139.28 424.29L1144.54 425.492C1145.11 422.994 1143.85 420.438 1141.51 419.377L1139.28 424.29ZM1119.96 458.516L1116.14 454.701C1116.12 454.725 1116.1 454.749 1116.07 454.773L1119.96 458.516ZM1082.97 482.254L1084.87 487.307C1084.89 487.298 1084.91 487.29 1084.93 487.281L1082.97 482.254ZM1089.6 434.227L1092.12 438.996C1092.16 438.976 1092.19 438.957 1092.23 438.937L1089.6 434.227ZM1118.85 405.521L1123.53 408.213V408.213L1118.85 405.521ZM1129.34 345.348H1134.74C1134.74 343.739 1134.02 342.213 1132.78 341.188C1131.54 340.163 1129.91 339.745 1128.32 340.049L1129.34 345.348ZM1043.23 361.909L1044.22 367.213C1044.23 367.211 1044.24 367.21 1044.24 367.208L1043.23 361.909ZM1007.89 434.227L1004.46 438.387C1004.52 438.441 1004.59 438.493 1004.66 438.543L1007.89 434.227ZM1034.94 490.535V485.139C1005.2 485.139 981.989 478.333 964.789 465.261L961.524 469.557L958.259 473.853C977.861 488.751 1003.6 495.931 1034.94 495.931V490.535ZM961.524 469.557L964.83 465.293C948.276 452.455 939.87 434.43 939.87 410.489H934.474H929.078C929.078 437.336 938.704 458.689 958.217 473.821L961.524 469.557ZM934.474 410.489H939.87C939.87 386.219 947.038 368.111 960.775 355.378L957.107 351.421L953.439 347.463C936.999 362.7 929.078 383.971 929.078 410.489H934.474ZM957.107 351.421L960.779 355.375C975.2 341.984 997.827 331.963 1029.36 325.802L1028.32 320.506L1027.29 315.21C994.777 321.563 969.928 332.152 953.436 347.466L957.107 351.421ZM1028.32 320.506L1029.33 325.806L1130.36 306.485L1129.34 301.185L1128.33 295.885L1027.31 315.206L1028.32 320.506ZM1129.34 301.185H1134.74C1134.74 277.639 1129.24 259.091 1117.21 246.647L1113.33 250.397L1109.45 254.148C1118.77 263.786 1123.95 279.096 1123.95 301.185H1129.34ZM1113.33 250.397L1117.28 246.711C1105.27 233.875 1087.8 227.888 1065.86 227.888V233.284V238.68C1085.88 238.68 1100.06 244.102 1109.39 254.084L1113.33 250.397ZM1065.86 233.284V227.888C1046.33 227.888 1030.27 232.291 1018.34 241.753L1021.7 245.981L1025.05 250.209C1034.46 242.742 1047.85 238.68 1065.86 238.68V233.284ZM1021.7 245.981L1018.43 241.682C1006.56 250.689 998.651 264.022 994.379 281.107L999.614 282.416L1004.85 283.724C1008.67 268.423 1015.48 257.466 1024.96 250.28L1021.7 245.981ZM999.614 282.416L999.96 277.031L939.788 273.166L939.442 278.551L939.096 283.936L999.269 287.801L999.614 282.416ZM939.442 278.551L944.746 279.546C950.047 251.273 963.029 229.297 983.611 213.25L980.293 208.994L976.975 204.739C954.13 222.55 939.878 246.945 934.138 277.557L939.442 278.551ZM980.293 208.994L983.576 213.277C1004.5 197.238 1031.77 188.997 1065.86 188.997V183.6V178.204C1030.02 178.204 1000.25 186.892 977.01 204.712L980.293 208.994ZM1065.86 183.6V188.997C1104.66 188.997 1133.23 199.395 1152.51 219.367L1156.39 215.619L1160.28 211.871C1138.34 189.151 1106.55 178.204 1065.86 178.204V183.6ZM1156.39 215.619L1152.58 219.434C1172.27 239.13 1182.46 267.22 1182.46 304.497H1187.86H1193.26C1193.26 265.225 1182.47 234.063 1160.21 211.803L1156.39 215.619ZM1187.86 304.497H1182.46V418.769H1187.86H1193.26V304.497H1187.86ZM1187.86 418.769H1182.46C1182.46 426.028 1183.55 432.506 1186.86 436.912L1191.17 433.675L1195.49 430.437C1194.38 428.954 1193.26 425.496 1193.26 418.769H1187.86ZM1191.17 433.675L1187.36 437.49C1191.36 441.496 1197.09 442.935 1203.32 442.935V437.539V432.143C1198.5 432.143 1196.13 431.005 1194.99 429.859L1191.17 433.675ZM1203.32 437.539V442.935H1213.81V437.539V432.143H1203.32V437.539ZM1213.81 437.539H1208.41V483.91H1213.81H1219.2V437.539H1213.81ZM1213.81 483.91L1212.75 478.619C1211.21 478.927 1208.51 479.274 1204.48 479.64L1204.97 485.014L1205.46 490.388C1209.53 490.018 1212.72 489.63 1214.86 489.201L1213.81 483.91ZM1204.97 485.014L1204.48 479.64C1200.61 479.992 1196.54 480.17 1192.28 480.17V485.566V490.962C1196.84 490.962 1201.24 490.772 1205.46 490.388L1204.97 485.014ZM1192.28 485.566V480.17C1180.33 480.17 1170.25 478.237 1161.88 474.555L1159.71 479.494L1157.53 484.433C1167.56 488.847 1179.19 490.962 1192.28 490.962V485.566ZM1159.71 479.494L1161.95 474.588C1154.33 471.093 1148.6 465.412 1144.7 457.285L1139.83 459.62L1134.97 461.955C1139.9 472.23 1147.42 479.798 1157.46 484.399L1159.71 479.494ZM1139.83 459.62L1144.73 457.359C1140.77 448.764 1138.6 436.931 1138.6 421.53H1133.21H1127.81C1127.81 437.779 1130.07 451.339 1134.93 461.882L1139.83 459.62ZM1133.21 421.53L1130.98 426.442L1137.05 429.202L1139.28 424.29L1141.51 419.377L1135.44 416.617L1133.21 421.53ZM1139.28 424.29L1134.02 423.087C1131.32 434.915 1125.41 445.434 1116.14 454.701L1119.96 458.516L1123.77 462.332C1134.38 451.725 1141.36 439.427 1144.54 425.492L1139.28 424.29ZM1119.96 458.516L1116.07 454.773C1107.13 464.058 1095.5 471.573 1081.01 477.227L1082.97 482.254L1084.93 487.281C1100.62 481.158 1113.65 472.848 1123.85 462.259L1119.96 458.516ZM1082.97 482.254L1081.08 477.202C1067.02 482.473 1051.66 485.139 1034.94 485.139V490.535V495.931C1052.82 495.931 1069.48 493.076 1084.87 487.307L1082.97 482.254ZM1044.33 444.163V449.559C1062.66 449.559 1078.66 446.122 1092.12 438.996L1089.6 434.227L1087.07 429.458C1075.51 435.581 1061.33 438.767 1044.33 438.767V444.163ZM1089.6 434.227L1092.23 438.937C1105.57 431.48 1116.04 421.223 1123.53 408.213L1118.85 405.521L1114.18 402.828C1107.68 414.108 1098.65 422.988 1086.96 429.516L1089.6 434.227ZM1118.85 405.521L1123.53 408.213C1131.04 395.167 1134.74 380.42 1134.74 364.117H1129.34H1123.95C1123.95 378.729 1120.65 391.585 1114.18 402.828L1118.85 405.521ZM1129.34 364.117H1134.74V345.348H1129.34H1123.95V364.117H1129.34ZM1129.34 345.348L1128.32 340.049L1042.21 356.61L1043.23 361.909L1044.24 367.208L1130.36 350.647L1129.34 345.348ZM1043.23 361.909L1042.23 356.606C1024.19 359.989 1010.38 365.594 1001.87 374.103L1005.69 377.919L1009.5 381.734C1015.71 375.522 1026.93 370.454 1044.22 367.213L1043.23 361.909ZM1005.69 377.919L1001.87 374.103C993.745 382.229 989.802 392.679 989.802 404.968H995.198H1000.59C1000.59 395.176 1003.64 387.593 1009.5 381.734L1005.69 377.919ZM995.198 404.968H989.802C989.802 418.839 994.57 430.219 1004.46 438.387L1007.89 434.227L1011.33 430.066C1004.29 424.25 1000.59 416.124 1000.59 404.968H995.198ZM1007.89 434.227L1004.66 438.543C1014.73 446.1 1028.16 449.559 1044.33 449.559V444.163V438.767C1029.58 438.767 1018.72 435.602 1011.13 429.91L1007.89 434.227ZM1234.51 566.716H1229.11C1229.11 569.696 1231.53 572.112 1234.51 572.112V566.716ZM1234.51 190.225V184.829C1231.53 184.829 1229.11 187.245 1229.11 190.225H1234.51ZM1289.71 190.225L1295.11 190.083C1295.03 187.159 1292.64 184.829 1289.71 184.829V190.225ZM1291.37 253.157L1288.95 257.984C1290.65 258.832 1292.67 258.728 1294.26 257.71C1295.86 256.692 1296.81 254.91 1296.76 253.016L1291.37 253.157ZM1284.74 249.845L1279.63 248.113C1278.77 250.666 1279.92 253.466 1282.33 254.672L1284.74 249.845ZM1321.18 200.714L1324.13 205.234C1324.15 205.219 1324.17 205.204 1324.19 205.189L1321.18 200.714ZM1450.35 205.13L1447.04 209.385C1447.07 209.409 1447.1 209.433 1447.13 209.457L1450.35 205.13ZM1491.76 260.886L1486.72 262.807C1486.72 262.83 1486.73 262.853 1486.74 262.876L1491.76 260.886ZM1491.76 413.249L1486.74 411.259C1486.73 411.282 1486.72 411.305 1486.72 411.328L1491.76 413.249ZM1450.35 469.557L1453.62 473.853C1453.62 473.85 1453.63 473.847 1453.63 473.844L1450.35 469.557ZM1338.29 482.806L1336.29 487.816V487.816L1338.29 482.806ZM1305.17 461.277L1301.2 464.937C1301.25 464.989 1301.3 465.041 1301.35 465.092L1305.17 461.277ZM1286.4 427.602L1282.58 423.786C1281.2 425.172 1280.67 427.2 1281.21 429.085L1286.4 427.602ZM1293.02 420.978H1298.42C1298.42 418.795 1297.1 416.827 1295.09 415.992C1293.07 415.157 1290.75 415.619 1289.21 417.162L1293.02 420.978ZM1293.02 566.716V572.112C1296 572.112 1298.42 569.696 1298.42 566.716H1293.02ZM1424.41 412.697L1420.1 409.445C1420.09 409.464 1420.07 409.483 1420.06 409.502L1424.41 412.697ZM1424.41 261.438L1420.06 264.633C1420.07 264.652 1420.09 264.671 1420.1 264.69L1424.41 261.438ZM1328.91 245.981L1331.83 250.515C1331.87 250.493 1331.9 250.471 1331.93 250.448L1328.91 245.981ZM1302.41 280.207L1307.41 282.232V282.232L1302.41 280.207ZM1301.86 393.928L1296.81 395.849C1296.83 395.883 1296.84 395.918 1296.85 395.952L1301.86 393.928ZM1328.35 428.706L1325.33 433.174C1325.38 433.211 1325.44 433.247 1325.49 433.282L1328.35 428.706ZM1234.51 566.716H1239.9V190.225H1234.51H1229.11V566.716H1234.51ZM1234.51 190.225V195.621H1289.71V190.225V184.829H1234.51V190.225ZM1289.71 190.225L1284.32 190.367L1285.97 253.299L1291.37 253.157L1296.76 253.016L1295.11 190.083L1289.71 190.225ZM1291.37 253.157L1293.78 248.331L1287.16 245.019L1284.74 249.845L1282.33 254.672L1288.95 257.984L1291.37 253.157ZM1284.74 249.845L1289.85 251.578C1296.88 230.847 1308.34 215.526 1324.13 205.234L1321.18 200.714L1318.23 196.194C1300.15 207.983 1287.33 225.416 1279.63 248.113L1284.74 249.845ZM1321.18 200.714L1324.19 205.189C1340.16 194.43 1358.59 188.997 1379.69 188.997V183.6V178.204C1356.63 178.204 1336.06 184.18 1318.16 196.239L1321.18 200.714ZM1379.69 183.6V188.997C1407.48 188.997 1429.78 195.929 1447.04 209.385L1450.35 205.13L1453.67 200.875C1434.12 185.625 1409.32 178.204 1379.69 178.204V183.6ZM1450.35 205.13L1447.13 209.457C1465.03 222.792 1478.22 240.52 1486.72 262.807L1491.76 260.886L1496.8 258.965C1487.63 234.881 1473.22 215.438 1453.58 200.803L1450.35 205.13ZM1491.76 260.886L1486.74 262.876C1495.67 285.364 1500.16 310.074 1500.16 337.068H1505.56H1510.95C1510.95 308.857 1506.25 282.779 1496.77 258.896L1491.76 260.886ZM1505.56 337.068H1500.16C1500.16 364.061 1495.67 388.771 1486.74 411.259L1491.76 413.249L1496.77 415.239C1506.25 391.356 1510.95 365.278 1510.95 337.068H1505.56ZM1491.76 413.249L1486.72 411.328C1478.22 433.626 1465.01 451.558 1447.08 465.271L1450.35 469.557L1453.63 473.844C1473.24 458.85 1487.63 439.244 1496.8 415.17L1491.76 413.249ZM1450.35 469.557L1447.09 465.261C1429.84 478.374 1407.51 485.139 1379.69 485.139V490.535V495.931C1409.29 495.931 1434.07 488.71 1453.62 473.853L1450.35 469.557ZM1379.69 490.535V485.139C1365.62 485.139 1352.5 482.678 1340.29 477.796L1338.29 482.806L1336.29 487.816C1349.84 493.239 1364.33 495.931 1379.69 495.931V490.535ZM1338.29 482.806L1340.29 477.796C1328.05 472.897 1317.63 466.111 1308.98 457.461L1305.17 461.277L1301.35 465.092C1311.1 474.843 1322.77 482.411 1336.29 487.816L1338.29 482.806ZM1305.17 461.277L1309.13 457.616C1300.89 448.686 1295.04 438.213 1291.59 426.12L1286.4 427.602L1281.21 429.085C1285.12 442.753 1291.78 454.729 1301.2 464.937L1305.17 461.277ZM1286.4 427.602L1290.21 431.418L1296.84 424.793L1293.02 420.978L1289.21 417.162L1282.58 423.786L1286.4 427.602ZM1293.02 420.978H1287.63V566.716H1293.02H1298.42V420.978H1293.02ZM1293.02 566.716V561.32H1234.51V566.716V572.112H1293.02V566.716ZM1369.21 439.747V445.143C1394.37 445.143 1414.43 435.392 1428.76 415.892L1424.41 412.697L1420.06 409.502C1407.89 426.068 1391.15 434.351 1369.21 434.351V439.747ZM1424.41 412.697L1428.72 415.949C1443.29 396.65 1450.23 370.135 1450.23 337.068H1444.83H1439.44C1439.44 368.773 1432.76 392.677 1420.1 409.445L1424.41 412.697ZM1444.83 337.068H1450.23C1450.23 304 1443.29 277.485 1428.72 258.186L1424.41 261.438L1420.1 264.69C1432.76 281.458 1439.44 305.363 1439.44 337.068H1444.83ZM1424.41 261.438L1428.76 258.243C1414.43 238.743 1394.37 228.992 1369.21 228.992V234.388V239.784C1391.15 239.784 1407.89 248.067 1420.06 264.633L1424.41 261.438ZM1369.21 234.388V228.992C1352.81 228.992 1338.29 233.108 1325.88 241.513L1328.91 245.981L1331.93 250.448C1342.34 243.397 1354.69 239.784 1369.21 239.784V234.388ZM1328.91 245.981L1325.98 241.447C1313.44 249.536 1303.98 261.934 1297.41 278.183L1302.41 280.207L1307.41 282.232C1313.35 267.567 1321.55 257.147 1331.83 250.515L1328.91 245.981ZM1302.41 280.207L1297.41 278.183C1290.82 294.464 1287.63 314.15 1287.63 337.068H1293.02H1298.42C1298.42 315.086 1301.49 296.865 1307.41 282.232L1302.41 280.207ZM1293.02 337.068H1287.63C1287.63 359.954 1290.62 379.602 1296.81 395.849L1301.86 393.928L1306.9 392.007C1301.31 377.339 1298.42 359.08 1298.42 337.068H1293.02ZM1301.86 393.928L1296.85 395.952C1303.43 412.19 1312.86 424.729 1325.33 433.174L1328.35 428.706L1331.38 424.239C1321.03 417.227 1312.8 406.579 1306.86 391.903L1301.86 393.928ZM1328.35 428.706L1325.49 433.282C1338.22 441.238 1352.85 445.143 1369.21 445.143V439.747V434.351C1354.64 434.351 1342.04 430.896 1331.21 424.13L1328.35 428.706ZM1582.64 471.765L1579.84 476.378C1579.85 476.385 1579.87 476.392 1579.88 476.4L1582.64 471.765ZM1534.61 418.217L1529.74 420.537C1529.75 420.558 1529.76 420.579 1529.77 420.6L1534.61 418.217ZM1534.61 256.47L1529.77 254.087C1529.77 254.098 1529.76 254.109 1529.76 254.119L1534.61 256.47ZM1582.64 202.922L1585.44 207.534C1585.46 207.522 1585.48 207.51 1585.5 207.498L1582.64 202.922ZM1725.62 202.37L1722.78 206.96C1722.8 206.972 1722.82 206.985 1722.84 206.997L1725.62 202.37ZM1772.54 255.366L1767.67 257.686C1767.68 257.706 1767.69 257.727 1767.7 257.748L1772.54 255.366ZM1789.66 354.181V359.577C1792.64 359.577 1795.05 357.161 1795.05 354.181H1789.66ZM1578.78 354.181V348.785C1577.3 348.785 1575.88 349.392 1574.87 350.464C1573.85 351.536 1573.31 352.98 1573.39 354.457L1578.78 354.181ZM1601.41 418.769L1597.5 422.483C1597.51 422.501 1597.53 422.518 1597.55 422.535L1601.41 418.769ZM1700.78 428.154L1703.9 432.555V432.555L1700.78 428.154ZM1724.52 395.584L1724.86 390.199C1722.4 390.042 1720.14 391.573 1719.38 393.919L1724.52 395.584ZM1785.24 399.448L1790.43 400.921C1790.88 399.352 1790.59 397.665 1789.65 396.333C1788.7 395.001 1787.21 394.166 1785.58 394.063L1785.24 399.448ZM1739.42 465.693L1742.62 470.035C1742.63 470.032 1742.63 470.029 1742.64 470.026L1739.42 465.693ZM1578.78 310.018L1573.43 309.31C1573.22 310.851 1573.69 312.405 1574.72 313.574C1575.74 314.743 1577.22 315.414 1578.78 315.414V310.018ZM1727.83 310.018V315.414C1729.33 315.414 1730.75 314.792 1731.78 313.697C1732.8 312.602 1733.32 311.132 1733.21 309.639L1727.83 310.018ZM1705.19 252.053L1701.43 255.924C1701.45 255.942 1701.47 255.959 1701.49 255.976L1705.19 252.053ZM1603.62 253.157L1607.38 257.026L1607.38 257.025L1603.62 253.157ZM1657.17 490.535V485.139C1629.26 485.139 1605.41 479.064 1585.41 467.131L1582.64 471.765L1579.88 476.4C1601.83 489.492 1627.66 495.931 1657.17 495.931V490.535ZM1582.64 471.765L1585.44 467.153C1565.78 455.212 1550.44 438.167 1539.46 415.835L1534.61 418.217L1529.77 420.6C1541.6 444.639 1558.29 463.293 1579.84 476.378L1582.64 471.765ZM1534.61 418.217L1539.49 415.897C1528.85 393.569 1523.45 367.34 1523.45 337.068H1518.05H1512.66C1512.66 368.623 1518.29 396.494 1529.74 420.537L1534.61 418.217ZM1518.05 337.068H1523.45C1523.45 306.792 1528.85 280.762 1539.47 258.82L1534.61 256.47L1529.76 254.119C1518.29 277.813 1512.66 305.515 1512.66 337.068H1518.05ZM1534.61 256.47L1539.46 258.852C1550.44 236.52 1565.78 219.475 1585.44 207.534L1582.64 202.922L1579.84 198.309C1558.29 211.395 1541.6 230.048 1529.77 254.087L1534.61 256.47ZM1582.64 202.922L1585.5 207.498C1605.13 195.23 1628.4 188.997 1655.51 188.997V183.6V178.204C1626.69 178.204 1601.37 184.852 1579.78 198.346L1582.64 202.922ZM1655.51 183.6V188.997C1681.12 188.997 1703.49 195.032 1722.78 206.96L1725.62 202.37L1728.46 197.78C1707.27 184.682 1682.89 178.204 1655.51 178.204V183.6ZM1725.62 202.37L1722.84 206.997C1742.09 218.548 1757.05 235.37 1767.67 257.686L1772.54 255.366L1777.42 253.046C1765.96 228.99 1749.63 210.482 1728.4 197.743L1725.62 202.37ZM1772.54 255.366L1767.7 257.748C1778.66 280.021 1784.26 307.133 1784.26 339.276H1789.66H1795.05C1795.05 305.91 1789.24 277.081 1777.39 252.983L1772.54 255.366ZM1789.66 339.276H1784.26V354.181H1789.66H1795.05V339.276H1789.66ZM1789.66 354.181V348.785H1578.78V354.181V359.577H1789.66V354.181ZM1578.78 354.181L1573.39 354.457C1574.9 383.879 1582.67 406.853 1597.5 422.483L1601.41 418.769L1605.33 415.056C1592.92 401.98 1585.6 381.895 1584.17 353.904L1578.78 354.181ZM1601.41 418.769L1597.55 422.535C1612.72 438.113 1632.99 445.695 1657.72 445.695V440.299V434.903C1635.34 434.903 1618.07 428.132 1605.28 415.004L1601.41 418.769ZM1657.72 440.299V445.695C1675.87 445.695 1691.38 441.438 1703.9 432.555L1700.78 428.154L1697.66 423.754C1687.36 431.063 1674.17 434.903 1657.72 434.903V440.299ZM1700.78 428.154L1703.9 432.555C1716.28 423.77 1724.88 411.942 1729.65 397.248L1724.52 395.584L1719.38 393.919C1715.32 406.459 1708.09 416.346 1697.66 423.754L1700.78 428.154ZM1724.52 395.584L1724.17 400.969L1784.9 404.833L1785.24 399.448L1785.58 394.063L1724.86 390.199L1724.52 395.584ZM1785.24 399.448L1780.05 397.975C1772.65 424.059 1758.07 445.137 1736.21 461.359L1739.42 465.693L1742.64 470.026C1766.41 452.391 1782.38 429.305 1790.43 400.921L1785.24 399.448ZM1739.42 465.693L1736.22 461.35C1714.84 477.121 1688.59 485.139 1657.17 485.139V490.535V495.931C1690.51 495.931 1719.1 487.387 1742.62 470.035L1739.42 465.693ZM1578.78 310.018V315.414H1727.83V310.018V304.622H1578.78V310.018ZM1727.83 310.018L1733.21 309.639C1731.32 282.745 1723.49 261.909 1708.9 248.13L1705.19 252.053L1701.49 255.976C1713.4 267.223 1720.66 285.031 1722.45 310.397L1727.83 310.018ZM1705.19 252.053L1708.95 248.183C1694.94 234.564 1676.96 227.888 1655.51 227.888V233.284V238.68C1674.54 238.68 1689.69 244.517 1701.43 255.924L1705.19 252.053ZM1655.51 233.284V227.888C1633.29 227.888 1614.59 234.955 1599.86 249.29L1603.62 253.157L1607.38 257.025C1619.88 244.862 1635.78 238.68 1655.51 238.68V233.284ZM1603.62 253.157L1599.86 249.289C1585.47 263.277 1576.84 283.518 1573.43 309.31L1578.78 310.018L1584.13 310.726C1587.34 286.466 1595.27 268.799 1607.38 257.026L1603.62 253.157ZM1820.24 483.91H1814.85C1814.85 486.89 1817.26 489.306 1820.24 489.306V483.91ZM1820.24 190.225V184.829C1817.26 184.829 1814.85 187.245 1814.85 190.225H1820.24ZM1873.79 190.225L1879.18 190.072C1879.1 187.153 1876.71 184.829 1873.79 184.829V190.225ZM1876 268.063L1874.29 273.182C1875.96 273.739 1877.8 273.445 1879.22 272.395C1880.63 271.345 1881.44 269.67 1881.39 267.91L1876 268.063ZM1871.03 266.406L1865.7 265.591C1865.3 268.189 1866.83 270.695 1869.32 271.526L1871.03 266.406ZM1895.32 208.442L1891.56 204.57C1891.54 204.589 1891.52 204.608 1891.51 204.627L1895.32 208.442ZM1973.71 190.225H1979.11C1979.11 187.245 1976.69 184.829 1973.71 184.829V190.225ZM1973.71 242.669V248.065C1976.69 248.065 1979.11 245.649 1979.11 242.669H1973.71ZM1908.57 249.845L1906.23 244.983V244.983L1908.57 249.845ZM1885.94 271.927L1881.15 269.443C1881.12 269.49 1881.1 269.538 1881.07 269.586L1885.94 271.927ZM1878.76 483.91V489.306C1881.74 489.306 1884.16 486.89 1884.16 483.91H1878.76ZM1820.24 483.91H1825.64V190.225H1820.24H1814.85V483.91H1820.24ZM1820.24 190.225V195.621H1873.79V190.225V184.829H1820.24V190.225ZM1873.79 190.225L1868.4 190.378L1870.61 268.216L1876 268.063L1881.39 267.91L1879.18 190.072L1873.79 190.225ZM1876 268.063L1877.71 262.943L1872.74 261.287L1871.03 266.406L1869.32 271.526L1874.29 273.182L1876 268.063ZM1871.03 266.406L1876.37 267.221C1880.33 241.265 1888.15 223.248 1899.14 212.258L1895.32 208.442L1891.51 204.627C1878.21 217.926 1869.83 238.552 1865.7 265.591L1871.03 266.406ZM1895.32 208.442L1899.08 212.314C1910.39 201.339 1925.68 195.621 1945.56 195.621V190.225V184.829C1923.48 184.829 1905.28 191.255 1891.56 204.57L1895.32 208.442ZM1945.56 190.225V195.621H1973.71V190.225V184.829H1945.56V190.225ZM1973.71 190.225H1968.31V242.669H1973.71H1979.11V190.225H1973.71ZM1973.71 242.669V237.273H1945.56V242.669V248.065H1973.71V242.669ZM1945.56 242.669V237.273C1930.28 237.273 1917.1 239.75 1906.23 244.983L1908.57 249.845L1910.91 254.707C1919.92 250.372 1931.39 248.065 1945.56 248.065V242.669ZM1908.57 249.845L1906.23 244.983C1895.22 250.282 1886.83 258.486 1881.15 269.443L1885.94 271.927L1890.73 274.411C1895.35 265.494 1902.04 258.977 1910.91 254.707L1908.57 249.845ZM1885.94 271.927L1881.07 269.586C1875.82 280.5 1873.36 294.261 1873.36 310.57H1878.76H1884.16C1884.16 295.228 1886.48 283.228 1890.8 274.268L1885.94 271.927ZM1878.76 310.57H1873.36V483.91H1878.76H1884.16V310.57H1878.76ZM1878.76 483.91V478.514H1820.24V483.91V489.306H1878.76V483.91ZM2085.35 477.286L2082.59 481.922C2082.63 481.948 2082.68 481.973 2082.72 481.998L2085.35 477.286ZM2049.47 439.747L2054.23 437.202C2053.08 435.053 2050.63 433.941 2048.26 434.489C2045.88 435.037 2044.17 437.109 2044.08 439.545L2049.47 439.747ZM2047.81 483.91V489.306C2050.71 489.306 2053.1 487.012 2053.21 484.112L2047.81 483.91ZM1993.16 483.91H1987.77C1987.77 486.89 1990.18 489.306 1993.16 489.306V483.91ZM1993.16 91.9618V86.5658C1990.18 86.5658 1987.77 88.9817 1987.77 91.9618H1993.16ZM2051.68 91.9618H2057.07C2057.07 88.9817 2054.66 86.5658 2051.68 86.5658V91.9618ZM2051.68 231.628H2046.28C2046.28 234.053 2047.9 236.181 2050.24 236.828C2052.57 237.476 2055.06 236.484 2056.3 234.404L2051.68 231.628ZM2085.9 197.954L2083.06 193.365C2083.05 193.376 2083.03 193.386 2083.01 193.396L2085.9 197.954ZM2205.7 202.37L2208.69 197.88V197.88L2205.7 202.37ZM2248.76 255.918L2243.8 258.043C2243.81 258.075 2243.82 258.107 2243.84 258.139L2248.76 255.918ZM2248.76 418.769L2243.82 416.578C2243.82 416.59 2243.81 416.603 2243.81 416.615L2248.76 418.769ZM2205.7 471.765L2202.7 467.275V467.275L2205.7 471.765ZM2183.61 412.697L2187.96 415.892C2187.97 415.878 2187.98 415.864 2187.99 415.85L2183.61 412.697ZM2183.61 261.99L2179.24 265.143C2179.25 265.157 2179.26 265.171 2179.27 265.185L2183.61 261.99ZM2088.11 246.533L2091.17 250.98V250.98L2088.11 246.533ZM2061.06 281.864L2066.05 283.93C2066.05 283.916 2066.06 283.902 2066.06 283.888L2061.06 281.864ZM2061.06 391.719L2066.06 389.695V389.695L2061.06 391.719ZM2088.11 427.602L2084.96 431.984C2084.99 432.006 2085.02 432.027 2085.05 432.049L2088.11 427.602ZM2139.45 490.535V485.139C2120.02 485.139 2102.91 480.907 2087.98 472.574L2085.35 477.286L2082.72 481.998C2099.44 491.329 2118.4 495.931 2139.45 495.931V490.535ZM2085.35 477.286L2088.11 472.649C2073.5 463.949 2062.23 452.159 2054.23 437.202L2049.47 439.747L2044.71 442.292C2053.64 458.985 2066.29 472.221 2082.59 481.922L2085.35 477.286ZM2049.47 439.747L2044.08 439.545L2042.42 483.708L2047.81 483.91L2053.21 484.112L2054.86 439.949L2049.47 439.747ZM2047.81 483.91V478.514H1993.16V483.91V489.306H2047.81V483.91ZM1993.16 483.91H1998.56V91.9618H1993.16H1987.77V483.91H1993.16ZM1993.16 91.9618V97.3579H2051.68V91.9618V86.5658H1993.16V91.9618ZM2051.68 91.9618H2046.28V231.628H2051.68H2057.07V91.9618H2051.68ZM2051.68 231.628L2056.3 234.404C2063.53 222.368 2074.28 211.714 2088.79 202.511L2085.9 197.954L2083.01 193.396C2067.35 203.331 2055.29 215.126 2047.05 228.852L2051.68 231.628ZM2085.9 197.954L2088.74 202.542C2103.25 193.56 2120.1 188.997 2139.45 188.997V183.6V178.204C2118.32 178.204 2099.47 183.21 2083.06 193.365L2085.9 197.954ZM2139.45 183.6V188.997C2163.92 188.997 2184.93 195.01 2202.7 206.86L2205.7 202.37L2208.69 197.88C2188.93 184.704 2165.77 178.204 2139.45 178.204V183.6ZM2205.7 202.37L2202.7 206.86C2220.5 218.725 2234.22 235.702 2243.8 258.043L2248.76 255.918L2253.72 253.792C2243.42 229.762 2228.43 211.041 2208.69 197.88L2205.7 202.37ZM2248.76 255.918L2243.84 258.139C2253.76 280.107 2258.82 306.366 2258.82 337.068H2264.21H2269.61C2269.61 305.205 2264.36 277.364 2253.67 253.697L2248.76 255.918ZM2264.21 337.068H2258.82C2258.82 367.766 2253.76 394.223 2243.82 416.578L2248.76 418.769L2253.69 420.961C2264.36 396.944 2269.61 368.934 2269.61 337.068H2264.21ZM2248.76 418.769L2243.81 416.615C2234.24 438.584 2220.52 455.396 2202.7 467.275L2205.7 471.765L2208.69 476.255C2228.41 463.109 2243.4 444.59 2253.7 420.924L2248.76 418.769ZM2205.7 471.765L2202.7 467.275C2184.93 479.125 2163.92 485.139 2139.45 485.139V490.535V495.931C2165.77 495.931 2188.93 489.431 2208.69 476.255L2205.7 471.765ZM2130.07 439.747V445.143C2154.23 445.143 2173.69 435.314 2187.96 415.892L2183.61 412.697L2179.27 409.502C2167.04 426.146 2150.81 434.351 2130.07 434.351V439.747ZM2183.61 412.697L2187.99 415.85C2202.13 396.222 2208.88 369.766 2208.88 337.068H2203.49H2198.09C2198.09 368.406 2191.6 392.37 2179.24 409.544L2183.61 412.697ZM2203.49 337.068H2208.88C2208.88 304.378 2202.13 278.077 2187.96 258.795L2183.61 261.99L2179.27 265.185C2191.6 281.969 2198.09 305.72 2198.09 337.068H2203.49ZM2183.61 261.99L2187.99 258.837C2173.76 239.072 2154.49 228.992 2130.62 228.992V234.388V239.784C2150.91 239.784 2166.97 248.105 2179.24 265.143L2183.61 261.99ZM2130.62 234.388V228.992C2113.14 228.992 2097.87 233.277 2085.05 242.086L2088.11 246.533L2091.17 250.98C2101.91 243.595 2114.97 239.784 2130.62 239.784V234.388ZM2088.11 246.533L2085.05 242.086C2072.27 250.877 2062.65 263.569 2056.06 279.839L2061.06 281.864L2066.06 283.888C2071.99 269.244 2080.4 258.382 2091.17 250.98L2088.11 246.533ZM2061.06 281.864L2056.08 279.797C2049.48 295.718 2046.28 314.866 2046.28 337.068H2051.68H2057.07C2057.07 315.842 2060.14 298.187 2066.05 283.93L2061.06 281.864ZM2051.68 337.068H2046.28C2046.28 358.567 2049.49 377.501 2056.06 393.744L2061.06 391.719L2066.06 389.695C2060.13 375.024 2057.07 357.523 2057.07 337.068H2051.68ZM2061.06 391.719L2056.06 393.744C2062.64 410.001 2072.24 422.839 2084.96 431.984L2088.11 427.602L2091.26 423.22C2080.43 415.436 2072 404.352 2066.06 389.695L2061.06 391.719ZM2088.11 427.602L2085.05 432.049C2097.85 440.844 2112.93 445.143 2130.07 445.143V439.747V434.351C2114.81 434.351 2101.93 430.554 2091.17 423.155L2088.11 427.602ZM2309.69 469.557L2306.38 473.821C2306.39 473.832 2306.41 473.843 2306.42 473.853L2309.69 469.557ZM2305.27 351.421L2308.94 355.378L2308.94 355.375L2305.27 351.421ZM2376.48 320.506L2375.47 315.206C2375.46 315.208 2375.46 315.209 2375.45 315.21L2376.48 320.506ZM2477.51 301.185L2478.52 306.485C2481.06 305.999 2482.9 303.774 2482.9 301.185H2477.51ZM2461.5 250.397L2457.56 254.084C2457.58 254.105 2457.6 254.127 2457.62 254.148L2461.5 250.397ZM2369.86 245.981L2373.12 250.28C2373.15 250.257 2373.18 250.233 2373.21 250.209L2369.86 245.981ZM2347.78 282.416L2347.43 287.801C2350.03 287.968 2352.38 286.252 2353.01 283.724L2347.78 282.416ZM2287.61 278.551L2282.3 277.557C2282.02 279.075 2282.4 280.643 2283.34 281.863C2284.29 283.082 2285.72 283.837 2287.26 283.936L2287.61 278.551ZM2328.46 208.994L2325.17 204.712C2325.16 204.721 2325.15 204.73 2325.14 204.739L2328.46 208.994ZM2504.56 215.619L2500.68 219.367C2500.7 219.39 2500.72 219.412 2500.74 219.434L2504.56 215.619ZM2539.34 433.675L2535.02 436.912C2535.17 437.116 2535.34 437.31 2535.52 437.49L2539.34 433.675ZM2561.97 437.539H2567.37C2567.37 434.559 2564.95 432.143 2561.97 432.143V437.539ZM2561.97 483.91L2563.03 489.201C2565.55 488.697 2567.37 486.482 2567.37 483.91H2561.97ZM2553.14 485.014L2552.65 479.64V479.64L2553.14 485.014ZM2507.87 479.494L2505.62 484.399C2505.65 484.411 2505.67 484.422 2505.7 484.433L2507.87 479.494ZM2488 459.62L2483.1 461.882C2483.11 461.906 2483.12 461.931 2483.13 461.955L2488 459.62ZM2481.37 421.53L2483.6 416.617C2481.93 415.858 2479.99 416 2478.45 416.993C2476.91 417.986 2475.98 419.695 2475.98 421.53H2481.37ZM2487.44 424.29L2492.7 425.492C2493.28 422.994 2492.01 420.438 2489.68 419.377L2487.44 424.29ZM2468.12 458.516L2464.31 454.701C2464.28 454.725 2464.26 454.749 2464.24 454.773L2468.12 458.516ZM2431.14 482.254L2433.03 487.307C2433.05 487.298 2433.08 487.29 2433.1 487.281L2431.14 482.254ZM2437.76 434.227L2440.28 438.996C2440.32 438.976 2440.36 438.957 2440.39 438.937L2437.76 434.227ZM2467.02 405.521L2471.69 408.213V408.213L2467.02 405.521ZM2477.51 345.348H2482.9C2482.9 343.739 2482.18 342.213 2480.94 341.188C2479.7 340.163 2478.07 339.745 2476.49 340.049L2477.51 345.348ZM2391.39 361.909L2392.38 367.213C2392.39 367.211 2392.4 367.21 2392.41 367.208L2391.39 361.909ZM2356.06 434.227L2352.62 438.387C2352.69 438.441 2352.75 438.493 2352.82 438.543L2356.06 434.227ZM2383.11 490.535V485.139C2353.36 485.139 2330.15 478.333 2312.95 465.261L2309.69 469.557L2306.42 473.853C2326.02 488.751 2351.76 495.931 2383.11 495.931V490.535ZM2309.69 469.557L2312.99 465.293C2296.44 452.455 2288.03 434.43 2288.03 410.489H2282.64H2277.24C2277.24 437.336 2286.87 458.689 2306.38 473.821L2309.69 469.557ZM2282.64 410.489H2288.03C2288.03 386.219 2295.2 368.111 2308.94 355.378L2305.27 351.421L2301.6 347.463C2285.16 362.7 2277.24 383.971 2277.24 410.489H2282.64ZM2305.27 351.421L2308.94 355.375C2323.36 341.984 2345.99 331.963 2377.52 325.802L2376.48 320.506L2375.45 315.21C2342.94 321.563 2318.09 332.152 2301.6 347.466L2305.27 351.421ZM2376.48 320.506L2377.5 325.806L2478.52 306.485L2477.51 301.185L2476.49 295.885L2375.47 315.206L2376.48 320.506ZM2477.51 301.185H2482.9C2482.9 277.639 2477.41 259.091 2465.38 246.647L2461.5 250.397L2457.62 254.148C2466.93 263.786 2472.11 279.096 2472.11 301.185H2477.51ZM2461.5 250.397L2465.44 246.711C2453.43 233.875 2435.96 227.888 2414.02 227.888V233.284V238.68C2434.04 238.68 2448.22 244.102 2457.56 254.084L2461.5 250.397ZM2414.02 233.284V227.888C2394.49 227.888 2378.44 232.291 2366.51 241.753L2369.86 245.981L2373.21 250.209C2382.63 242.742 2396.02 238.68 2414.02 238.68V233.284ZM2369.86 245.981L2366.6 241.682C2354.72 250.689 2346.81 264.022 2342.54 281.107L2347.78 282.416L2353.01 283.724C2356.84 268.423 2363.65 257.466 2373.12 250.28L2369.86 245.981ZM2347.78 282.416L2348.12 277.031L2287.95 273.166L2287.61 278.551L2287.26 283.936L2347.43 287.801L2347.78 282.416ZM2287.61 278.551L2292.91 279.546C2298.21 251.273 2311.19 229.297 2331.77 213.25L2328.46 208.994L2325.14 204.739C2302.29 222.55 2288.04 246.945 2282.3 277.557L2287.61 278.551ZM2328.46 208.994L2331.74 213.277C2352.66 197.238 2379.94 188.997 2414.02 188.997V183.6V178.204C2378.18 178.204 2348.42 186.892 2325.17 204.712L2328.46 208.994ZM2414.02 183.6V188.997C2452.82 188.997 2481.39 199.395 2500.68 219.367L2504.56 215.619L2508.44 211.871C2486.5 189.151 2454.72 178.204 2414.02 178.204V183.6ZM2504.56 215.619L2500.74 219.434C2520.44 239.13 2530.63 267.22 2530.63 304.497H2536.02H2541.42C2541.42 265.225 2530.63 234.063 2508.37 211.803L2504.56 215.619ZM2536.02 304.497H2530.63V418.769H2536.02H2541.42V304.497H2536.02ZM2536.02 418.769H2530.63C2530.63 426.028 2531.71 432.506 2535.02 436.912L2539.34 433.675L2543.65 430.437C2542.54 428.954 2541.42 425.496 2541.42 418.769H2536.02ZM2539.34 433.675L2535.52 437.49C2539.53 441.496 2545.25 442.935 2551.48 442.935V437.539V432.143C2546.67 432.143 2544.3 431.005 2543.15 429.859L2539.34 433.675ZM2551.48 437.539V442.935H2561.97V437.539V432.143H2551.48V437.539ZM2561.97 437.539H2556.57V483.91H2561.97H2567.37V437.539H2561.97ZM2561.97 483.91L2560.91 478.619C2559.37 478.927 2556.67 479.274 2552.65 479.64L2553.14 485.014L2553.62 490.388C2557.7 490.018 2560.89 489.63 2563.03 489.201L2561.97 483.91ZM2553.14 485.014L2552.65 479.64C2548.78 479.992 2544.71 480.17 2540.44 480.17V485.566V490.962C2545.01 490.962 2549.4 490.772 2553.62 490.388L2553.14 485.014ZM2540.44 485.566V480.17C2528.5 480.17 2518.41 478.237 2510.04 474.555L2507.87 479.494L2505.7 484.433C2515.73 488.847 2527.36 490.962 2540.44 490.962V485.566ZM2507.87 479.494L2510.12 474.588C2502.49 471.093 2496.76 465.412 2492.86 457.285L2488 459.62L2483.13 461.955C2488.06 472.23 2495.58 479.798 2505.62 484.399L2507.87 479.494ZM2488 459.62L2492.9 457.359C2488.93 448.764 2486.77 436.931 2486.77 421.53H2481.37H2475.98C2475.98 437.779 2478.23 451.339 2483.1 461.882L2488 459.62ZM2481.37 421.53L2479.14 426.442L2485.21 429.202L2487.44 424.29L2489.68 419.377L2483.6 416.617L2481.37 421.53ZM2487.44 424.29L2482.18 423.087C2479.48 434.915 2473.57 445.434 2464.31 454.701L2468.12 458.516L2471.94 462.332C2482.54 451.725 2489.52 439.427 2492.7 425.492L2487.44 424.29ZM2468.12 458.516L2464.24 454.773C2455.29 464.058 2443.66 471.573 2429.17 477.227L2431.14 482.254L2433.1 487.281C2448.79 481.158 2461.81 472.848 2472.01 462.259L2468.12 458.516ZM2431.14 482.254L2429.24 477.202C2415.18 482.473 2399.82 485.139 2383.11 485.139V490.535V495.931C2400.99 495.931 2417.65 493.076 2433.03 487.307L2431.14 482.254ZM2392.49 444.163V449.559C2410.82 449.559 2426.82 446.122 2440.28 438.996L2437.76 434.227L2435.24 429.458C2423.67 435.581 2409.49 438.767 2392.49 438.767V444.163ZM2437.76 434.227L2440.39 438.937C2453.74 431.48 2464.2 421.223 2471.69 408.213L2467.02 405.521L2462.34 402.828C2455.85 414.108 2446.81 422.988 2435.13 429.516L2437.76 434.227ZM2467.02 405.521L2471.69 408.213C2479.21 395.167 2482.9 380.42 2482.9 364.117H2477.51H2472.11C2472.11 378.729 2468.82 391.585 2462.34 402.828L2467.02 405.521ZM2477.51 364.117H2482.9V345.348H2477.51H2472.11V364.117H2477.51ZM2477.51 345.348L2476.49 340.049L2390.37 356.61L2391.39 361.909L2392.41 367.208L2478.53 350.647L2477.51 345.348ZM2391.39 361.909L2390.39 356.606C2372.35 359.989 2358.54 365.594 2350.03 374.103L2353.85 377.919L2357.67 381.734C2363.88 375.522 2375.1 370.454 2392.38 367.213L2391.39 361.909ZM2353.85 377.919L2350.03 374.103C2341.91 382.229 2337.97 392.679 2337.97 404.968H2343.36H2348.76C2348.76 395.176 2351.81 387.593 2357.67 381.734L2353.85 377.919ZM2343.36 404.968H2337.97C2337.97 418.839 2342.73 430.219 2352.62 438.387L2356.06 434.227L2359.49 430.066C2352.45 424.25 2348.76 416.124 2348.76 404.968H2343.36ZM2356.06 434.227L2352.82 438.543C2362.9 446.1 2376.32 449.559 2392.49 449.559V444.163V438.767C2377.75 438.767 2366.89 435.602 2359.3 429.91L2356.06 434.227ZM2637.37 562.852L2635.39 567.869V567.869L2637.37 562.852ZM2593.76 533.042L2597.8 529.464C2597.79 529.445 2597.77 529.425 2597.75 529.406L2593.76 533.042ZM2570.58 488.879L2570.23 483.493C2568.65 483.594 2567.18 484.392 2566.24 485.672C2565.29 486.953 2564.96 488.585 2565.33 490.133L2570.58 488.879ZM2631.3 485.014L2636.42 483.308C2635.65 480.984 2633.4 479.473 2630.96 479.629L2631.3 485.014ZM2652.28 513.72L2655.42 509.329C2655.41 509.322 2655.4 509.315 2655.38 509.307L2652.28 513.72ZM2754.41 509.304L2751.09 505.045C2751.07 505.06 2751.06 505.075 2751.04 505.09L2754.41 509.304ZM2774.28 419.874H2779.68C2779.68 417.341 2777.92 415.149 2775.44 414.604C2772.97 414.059 2770.45 415.307 2769.38 417.605L2774.28 419.874ZM2740.61 455.756L2737.93 451.071V451.071L2740.61 455.756ZM2623.02 450.788L2625.91 446.232V446.232L2623.02 450.788ZM2578.31 400.552L2583.13 398.139V398.139L2578.31 400.552ZM2577.75 252.053L2572.93 249.64C2572.92 249.663 2572.91 249.685 2572.89 249.707L2577.75 252.053ZM2621.92 201.818L2619.03 197.262C2619.01 197.27 2619 197.279 2618.99 197.287L2621.92 201.818ZM2741.71 197.954L2738.92 202.571C2738.93 202.581 2738.95 202.59 2738.96 202.599L2741.71 197.954ZM2776.49 236.596L2771.53 238.735C2772.55 241.085 2775.07 242.399 2777.58 241.881C2780.09 241.363 2781.88 239.155 2781.88 236.596H2776.49ZM2776.49 190.225V184.829C2773.51 184.829 2771.09 187.245 2771.09 190.225H2776.49ZM2832.8 190.225H2838.19C2838.19 187.245 2835.78 184.829 2832.8 184.829V190.225ZM2816.24 522.001L2811.75 519.008C2811.72 519.046 2811.7 519.084 2811.67 519.123L2816.24 522.001ZM2769.86 560.092L2767.78 555.113C2767.75 555.129 2767.71 555.144 2767.67 555.161L2769.86 560.092ZM2752.75 394.48L2748.63 390.998C2748.61 391.016 2748.6 391.034 2748.58 391.053L2752.75 394.48ZM2774.28 326.027L2768.89 325.923C2768.88 325.935 2768.88 325.947 2768.88 325.958L2774.28 326.027ZM2765.45 276.895L2760.52 279.099C2760.53 279.115 2760.54 279.132 2760.54 279.148L2765.45 276.895ZM2738.4 244.877L2735.37 249.344C2735.43 249.382 2735.48 249.418 2735.54 249.453L2738.4 244.877ZM2642.34 258.678L2638.09 255.352C2638.09 255.356 2638.09 255.361 2638.08 255.365L2642.34 258.678ZM2642.89 394.48L2638.65 397.805C2638.67 397.839 2638.7 397.873 2638.73 397.907L2642.89 394.48ZM2698.65 573.341V567.945C2676 567.945 2656.27 564.528 2639.36 557.835L2637.37 562.852L2635.39 567.869C2653.81 575.16 2674.93 578.737 2698.65 578.737V573.341ZM2637.37 562.852L2639.36 557.835C2622.4 551.121 2608.59 541.647 2597.8 529.464L2593.76 533.042L2589.72 536.62C2601.75 550.199 2617.02 560.598 2635.39 567.869L2637.37 562.852ZM2593.76 533.042L2597.75 529.406C2586.97 517.587 2579.67 503.691 2575.83 487.624L2570.58 488.879L2565.33 490.133C2569.58 507.924 2577.73 523.471 2589.78 536.677L2593.76 533.042ZM2570.58 488.879L2570.92 494.264L2631.64 490.399L2631.3 485.014L2630.96 479.629L2570.23 483.493L2570.58 488.879ZM2631.3 485.014L2626.18 486.721C2630.57 499.897 2638.24 510.44 2649.17 518.133L2652.28 513.72L2655.38 509.307C2646.44 503.016 2640.13 494.421 2636.42 483.308L2631.3 485.014ZM2652.28 513.72L2649.14 518.111C2660.78 526.421 2677.56 530.157 2698.65 530.157V524.761V519.365C2678.52 519.365 2664.39 515.741 2655.42 509.329L2652.28 513.72ZM2698.65 524.761V530.157C2723.61 530.157 2743.58 524.876 2757.78 513.518L2754.41 509.304L2751.04 505.09C2739.47 514.341 2722.27 519.365 2698.65 519.365V524.761ZM2754.41 509.304L2757.72 513.563C2772.61 501.984 2779.68 484.565 2779.68 462.381H2774.28H2768.88C2768.88 482.151 2762.7 496.014 2751.09 505.045L2754.41 509.304ZM2774.28 462.381H2779.68V419.874H2774.28H2768.88V462.381H2774.28ZM2774.28 419.874L2769.38 417.605C2762.9 431.604 2752.49 442.753 2737.93 451.071L2740.61 455.756L2743.28 460.441C2759.64 451.094 2771.68 438.321 2779.18 422.142L2774.28 419.874ZM2740.61 455.756L2737.93 451.071C2723.35 459.403 2706.99 463.609 2688.71 463.609V469.005V474.401C2708.72 474.401 2726.95 469.775 2743.28 460.441L2740.61 455.756ZM2688.71 469.005V463.609C2664.99 463.609 2644.11 457.78 2625.91 446.232L2623.02 450.788L2620.13 455.344C2640.21 468.085 2663.13 474.401 2688.71 474.401V469.005ZM2623.02 450.788L2625.91 446.232C2607.65 434.64 2593.39 418.656 2583.13 398.139L2578.31 400.552L2573.48 402.965C2584.57 425.139 2600.12 442.645 2620.13 455.344L2623.02 450.788ZM2578.31 400.552L2583.13 398.139C2572.89 377.661 2567.69 353.855 2567.69 326.579H2562.3H2556.9C2556.9 355.243 2562.37 380.752 2573.48 402.965L2578.31 400.552ZM2562.3 326.579H2567.69C2567.69 298.896 2572.72 274.884 2582.61 254.399L2577.75 252.053L2572.89 249.707C2562.17 271.914 2556.9 297.585 2556.9 326.579H2562.3ZM2577.75 252.053L2582.58 254.467C2592.85 233.923 2606.94 217.934 2624.85 206.348L2621.92 201.818L2618.99 197.287C2599.35 209.992 2584 227.493 2572.93 249.64L2577.75 252.053ZM2621.92 201.818L2624.81 206.374C2643.03 194.809 2663.55 188.997 2686.51 188.997V183.6V178.204C2661.62 178.204 2639.08 184.537 2619.03 197.262L2621.92 201.818ZM2686.51 183.6V188.997C2706.63 188.997 2724.04 193.577 2738.92 202.571L2741.71 197.954L2744.5 193.336C2727.73 183.192 2708.33 178.204 2686.51 178.204V183.6ZM2741.71 197.954L2738.96 202.599C2754.24 211.628 2765.03 223.662 2771.53 238.735L2776.49 236.596L2781.44 234.457C2773.97 217.144 2761.56 203.416 2744.46 193.308L2741.71 197.954ZM2776.49 236.596H2781.88V190.225H2776.49H2771.09V236.596H2776.49ZM2776.49 190.225V195.621H2832.8V190.225V184.829H2776.49V190.225ZM2832.8 190.225H2827.4V460.724H2832.8H2838.19V190.225H2832.8ZM2832.8 460.724H2827.4C2827.4 484.186 2822.08 503.511 2811.75 519.008L2816.24 522.001L2820.73 524.994C2832.48 507.368 2838.19 485.843 2838.19 460.724H2832.8ZM2816.24 522.001L2811.67 519.123C2801.65 535.023 2787.1 547.034 2767.78 555.113L2769.86 560.092L2771.95 565.07C2793.11 556.22 2809.48 542.837 2820.8 524.879L2816.24 522.001ZM2769.86 560.092L2767.67 555.161C2748.65 563.616 2725.69 567.945 2698.65 567.945V573.341V578.737C2726.81 578.737 2751.33 574.233 2772.06 565.023L2769.86 560.092ZM2698.1 419.321V424.718C2722.41 424.718 2742.2 415.804 2756.92 397.907L2752.75 394.48L2748.58 391.053C2736.06 406.278 2719.42 413.925 2698.1 413.925V419.321ZM2752.75 394.48L2756.87 397.961C2771.9 380.161 2779.3 355.992 2779.68 326.095L2774.28 326.027L2768.88 325.958C2768.53 354.21 2761.57 375.676 2748.63 390.998L2752.75 394.48ZM2774.28 326.027L2779.68 326.13C2780.05 306.399 2777.03 289.173 2770.35 274.642L2765.45 276.895L2760.54 279.148C2766.38 291.851 2769.24 307.38 2768.89 325.923L2774.28 326.027ZM2765.45 276.895L2770.37 274.692C2763.73 259.833 2754.04 248.288 2741.26 240.301L2738.4 244.877L2735.54 249.453C2746.31 256.187 2754.66 265.987 2760.52 279.099L2765.45 276.895ZM2738.4 244.877L2741.42 240.409C2729.02 232.004 2714.5 227.888 2698.1 227.888V233.284V238.68C2712.61 238.68 2724.96 242.293 2735.37 249.344L2738.4 244.877ZM2698.1 233.284V227.888C2672.73 227.888 2652.49 236.957 2638.09 255.352L2642.34 258.678L2646.59 262.004C2658.69 246.541 2675.62 238.68 2698.1 238.68V233.284ZM2642.34 258.678L2638.08 255.365C2624.24 273.157 2617.63 296.907 2617.63 326.027H2623.02H2628.42C2628.42 298.471 2634.68 277.321 2646.6 261.991L2642.34 258.678ZM2623.02 326.027H2617.63C2617.63 355.535 2624.44 379.652 2638.65 397.805L2642.89 394.48L2647.14 391.154C2634.85 375.449 2628.42 353.931 2628.42 326.027H2623.02ZM2642.89 394.48L2638.73 397.907C2653.46 415.826 2673.45 424.718 2698.1 424.718V419.321V413.925C2676.38 413.925 2659.56 406.256 2647.06 391.053L2642.89 394.48Z" fill="#EAEAEA" mask="url(#path-2-outside-1_2231_16221)"/>
</svg>
